<?xml version="1.0" encoding="utf-8" standalone="no"?>
<!DOCTYPE svg PUBLIC "-//W3C//DTD SVG 1.1//EN"
  "http://www.w3.org/Graphics/SVG/1.1/DTD/svg11.dtd">
<svg xmlns:xlink="http://www.w3.org/1999/xlink" width="460.8pt" height="345.6pt" viewBox="0 0 460.8 345.6" xmlns="http://www.w3.org/2000/svg" version="1.1">
 <metadata>
  <rdf:RDF xmlns:dc="http://purl.org/dc/elements/1.1/" xmlns:cc="http://creativecommons.org/ns#" xmlns:rdf="http://www.w3.org/1999/02/22-rdf-syntax-ns#">
   <cc:Work>
    <dc:type rdf:resource="http://purl.org/dc/dcmitype/StillImage"/>
    <dc:date>2024-07-03T13:36:42.392284</dc:date>
    <dc:format>image/svg+xml</dc:format>
    <dc:creator>
     <cc:Agent>
      <dc:title>Matplotlib v3.6.3, https://matplotlib.org/</dc:title>
     </cc:Agent>
    </dc:creator>
   </cc:Work>
  </rdf:RDF>
 </metadata>
 <defs>
  <style type="text/css">*{stroke-linejoin: round; stroke-linecap: butt}</style>
 </defs>
 <g id="figure_1">
  <g id="patch_1">
   <path d="M 0 345.6 
L 460.8 345.6 
L 460.8 0 
L 0 0 
z
" style="fill: #ffffff"/>
  </g>
  <g id="axes_1">
   <g id="patch_2">
    <path d="M 342.6048 174.528 
C 342.6048 153.651255 336.463047 133.228693 324.947811 115.814968 
C 313.432575 98.401243 297.044895 84.754042 277.834702 76.58049 
C 258.624509 68.406938 237.427655 66.062674 216.895651 69.840941 
C 196.363648 73.619208 177.38986 83.355611 162.347715 97.832224 
L 236.16 174.528 
L 342.6048 174.528 
z
" style="fill: #1f77b4"/>
   </g>
   <g id="patch_3">
    <path d="M 162.347715 97.832224 
C 143.535103 115.937548 132.026208 140.346631 130.02753 166.379733 
C 128.028852 192.412835 135.676839 218.292677 151.505212 239.057546 
L 236.16 174.528 
L 162.347715 97.832224 
z
" style="fill: #ff7f0e"/>
   </g>
   <g id="patch_4">
    <path d="M 151.505212 239.057546 
C 161.64638 252.361505 174.782354 263.089383 189.844157 270.36817 
C 204.90596 277.646956 221.473636 281.273702 238.198946 280.95327 
C 254.924255 280.632839 271.340858 276.374165 286.11281 268.523809 
C 300.884762 260.673454 313.600188 249.450303 323.224334 235.76767 
L 236.16 174.528 
L 151.505212 239.057546 
z
" style="fill: #2ca02c"/>
   </g>
   <g id="patch_5">
    <path d="M 323.224334 235.76767 
C 329.493142 226.855317 334.356474 217.033012 337.644092 206.644578 
C 340.93171 196.256145 342.604801 185.424227 342.6048 174.52799 
L 236.16 174.528 
L 323.224334 235.76767 
z
" style="fill: #d62728"/>
   </g>
   <g id="matplotlib.axis_1"/>
   <g id="matplotlib.axis_2"/>
   <g id="text_1">
    <!-- Supravietuit fara rude -->
    <g transform="translate(282.002172 69.545114) scale(0.1 -0.1)">
     <defs>
      <path id="DejaVuSans-53" d="M 3425 4513 
L 3425 3897 
Q 3066 4069 2747 4153 
Q 2428 4238 2131 4238 
Q 1616 4238 1336 4038 
Q 1056 3838 1056 3469 
Q 1056 3159 1242 3001 
Q 1428 2844 1947 2747 
L 2328 2669 
Q 3034 2534 3370 2195 
Q 3706 1856 3706 1288 
Q 3706 609 3251 259 
Q 2797 -91 1919 -91 
Q 1588 -91 1214 -16 
Q 841 59 441 206 
L 441 856 
Q 825 641 1194 531 
Q 1563 422 1919 422 
Q 2459 422 2753 634 
Q 3047 847 3047 1241 
Q 3047 1584 2836 1778 
Q 2625 1972 2144 2069 
L 1759 2144 
Q 1053 2284 737 2584 
Q 422 2884 422 3419 
Q 422 4038 858 4394 
Q 1294 4750 2059 4750 
Q 2388 4750 2728 4690 
Q 3069 4631 3425 4513 
z
" transform="scale(0.015625)"/>
      <path id="DejaVuSans-75" d="M 544 1381 
L 544 3500 
L 1119 3500 
L 1119 1403 
Q 1119 906 1312 657 
Q 1506 409 1894 409 
Q 2359 409 2629 706 
Q 2900 1003 2900 1516 
L 2900 3500 
L 3475 3500 
L 3475 0 
L 2900 0 
L 2900 538 
Q 2691 219 2414 64 
Q 2138 -91 1772 -91 
Q 1169 -91 856 284 
Q 544 659 544 1381 
z
M 1991 3584 
L 1991 3584 
z
" transform="scale(0.015625)"/>
      <path id="DejaVuSans-70" d="M 1159 525 
L 1159 -1331 
L 581 -1331 
L 581 3500 
L 1159 3500 
L 1159 2969 
Q 1341 3281 1617 3432 
Q 1894 3584 2278 3584 
Q 2916 3584 3314 3078 
Q 3713 2572 3713 1747 
Q 3713 922 3314 415 
Q 2916 -91 2278 -91 
Q 1894 -91 1617 61 
Q 1341 213 1159 525 
z
M 3116 1747 
Q 3116 2381 2855 2742 
Q 2594 3103 2138 3103 
Q 1681 3103 1420 2742 
Q 1159 2381 1159 1747 
Q 1159 1113 1420 752 
Q 1681 391 2138 391 
Q 2594 391 2855 752 
Q 3116 1113 3116 1747 
z
" transform="scale(0.015625)"/>
      <path id="DejaVuSans-72" d="M 2631 2963 
Q 2534 3019 2420 3045 
Q 2306 3072 2169 3072 
Q 1681 3072 1420 2755 
Q 1159 2438 1159 1844 
L 1159 0 
L 581 0 
L 581 3500 
L 1159 3500 
L 1159 2956 
Q 1341 3275 1631 3429 
Q 1922 3584 2338 3584 
Q 2397 3584 2469 3576 
Q 2541 3569 2628 3553 
L 2631 2963 
z
" transform="scale(0.015625)"/>
      <path id="DejaVuSans-61" d="M 2194 1759 
Q 1497 1759 1228 1600 
Q 959 1441 959 1056 
Q 959 750 1161 570 
Q 1363 391 1709 391 
Q 2188 391 2477 730 
Q 2766 1069 2766 1631 
L 2766 1759 
L 2194 1759 
z
M 3341 1997 
L 3341 0 
L 2766 0 
L 2766 531 
Q 2569 213 2275 61 
Q 1981 -91 1556 -91 
Q 1019 -91 701 211 
Q 384 513 384 1019 
Q 384 1609 779 1909 
Q 1175 2209 1959 2209 
L 2766 2209 
L 2766 2266 
Q 2766 2663 2505 2880 
Q 2244 3097 1772 3097 
Q 1472 3097 1187 3025 
Q 903 2953 641 2809 
L 641 3341 
Q 956 3463 1253 3523 
Q 1550 3584 1831 3584 
Q 2591 3584 2966 3190 
Q 3341 2797 3341 1997 
z
" transform="scale(0.015625)"/>
      <path id="DejaVuSans-76" d="M 191 3500 
L 800 3500 
L 1894 563 
L 2988 3500 
L 3597 3500 
L 2284 0 
L 1503 0 
L 191 3500 
z
" transform="scale(0.015625)"/>
      <path id="DejaVuSans-69" d="M 603 3500 
L 1178 3500 
L 1178 0 
L 603 0 
L 603 3500 
z
M 603 4863 
L 1178 4863 
L 1178 4134 
L 603 4134 
L 603 4863 
z
" transform="scale(0.015625)"/>
      <path id="DejaVuSans-65" d="M 3597 1894 
L 3597 1613 
L 953 1613 
Q 991 1019 1311 708 
Q 1631 397 2203 397 
Q 2534 397 2845 478 
Q 3156 559 3463 722 
L 3463 178 
Q 3153 47 2828 -22 
Q 2503 -91 2169 -91 
Q 1331 -91 842 396 
Q 353 884 353 1716 
Q 353 2575 817 3079 
Q 1281 3584 2069 3584 
Q 2775 3584 3186 3129 
Q 3597 2675 3597 1894 
z
M 3022 2063 
Q 3016 2534 2758 2815 
Q 2500 3097 2075 3097 
Q 1594 3097 1305 2825 
Q 1016 2553 972 2059 
L 3022 2063 
z
" transform="scale(0.015625)"/>
      <path id="DejaVuSans-74" d="M 1172 4494 
L 1172 3500 
L 2356 3500 
L 2356 3053 
L 1172 3053 
L 1172 1153 
Q 1172 725 1289 603 
Q 1406 481 1766 481 
L 2356 481 
L 2356 0 
L 1766 0 
Q 1100 0 847 248 
Q 594 497 594 1153 
L 594 3053 
L 172 3053 
L 172 3500 
L 594 3500 
L 594 4494 
L 1172 4494 
z
" transform="scale(0.015625)"/>
      <path id="DejaVuSans-20" transform="scale(0.015625)"/>
      <path id="DejaVuSans-66" d="M 2375 4863 
L 2375 4384 
L 1825 4384 
Q 1516 4384 1395 4259 
Q 1275 4134 1275 3809 
L 1275 3500 
L 2222 3500 
L 2222 3053 
L 1275 3053 
L 1275 0 
L 697 0 
L 697 3053 
L 147 3053 
L 147 3500 
L 697 3500 
L 697 3744 
Q 697 4328 969 4595 
Q 1241 4863 1831 4863 
L 2375 4863 
z
" transform="scale(0.015625)"/>
      <path id="DejaVuSans-64" d="M 2906 2969 
L 2906 4863 
L 3481 4863 
L 3481 0 
L 2906 0 
L 2906 525 
Q 2725 213 2448 61 
Q 2172 -91 1784 -91 
Q 1150 -91 751 415 
Q 353 922 353 1747 
Q 353 2572 751 3078 
Q 1150 3584 1784 3584 
Q 2172 3584 2448 3432 
Q 2725 3281 2906 2969 
z
M 947 1747 
Q 947 1113 1208 752 
Q 1469 391 1925 391 
Q 2381 391 2643 752 
Q 2906 1113 2906 1747 
Q 2906 2381 2643 2742 
Q 2381 3103 1925 3103 
Q 1469 3103 1208 2742 
Q 947 2381 947 1747 
z
" transform="scale(0.015625)"/>
     </defs>
     <use xlink:href="#DejaVuSans-53"/>
     <use xlink:href="#DejaVuSans-75" x="63.476562"/>
     <use xlink:href="#DejaVuSans-70" x="126.855469"/>
     <use xlink:href="#DejaVuSans-72" x="190.332031"/>
     <use xlink:href="#DejaVuSans-61" x="231.445312"/>
     <use xlink:href="#DejaVuSans-76" x="292.724609"/>
     <use xlink:href="#DejaVuSans-69" x="351.904297"/>
     <use xlink:href="#DejaVuSans-65" x="379.6875"/>
     <use xlink:href="#DejaVuSans-74" x="441.210938"/>
     <use xlink:href="#DejaVuSans-75" x="480.419922"/>
     <use xlink:href="#DejaVuSans-69" x="543.798828"/>
     <use xlink:href="#DejaVuSans-74" x="571.582031"/>
     <use xlink:href="#DejaVuSans-20" x="610.791016"/>
     <use xlink:href="#DejaVuSans-66" x="642.578125"/>
     <use xlink:href="#DejaVuSans-61" x="677.783203"/>
     <use xlink:href="#DejaVuSans-72" x="739.0625"/>
     <use xlink:href="#DejaVuSans-61" x="780.175781"/>
     <use xlink:href="#DejaVuSans-20" x="841.455078"/>
     <use xlink:href="#DejaVuSans-72" x="873.242188"/>
     <use xlink:href="#DejaVuSans-75" x="914.355469"/>
     <use xlink:href="#DejaVuSans-64" x="977.734375"/>
     <use xlink:href="#DejaVuSans-65" x="1041.210938"/>
    </g>
   </g>
   <g id="text_2">
    <!-- Decedat fara rude -->
    <g transform="translate(28.31897 168.324281) scale(0.1 -0.1)">
     <defs>
      <path id="DejaVuSans-44" d="M 1259 4147 
L 1259 519 
L 2022 519 
Q 2988 519 3436 956 
Q 3884 1394 3884 2338 
Q 3884 3275 3436 3711 
Q 2988 4147 2022 4147 
L 1259 4147 
z
M 628 4666 
L 1925 4666 
Q 3281 4666 3915 4102 
Q 4550 3538 4550 2338 
Q 4550 1131 3912 565 
Q 3275 0 1925 0 
L 628 0 
L 628 4666 
z
" transform="scale(0.015625)"/>
      <path id="DejaVuSans-63" d="M 3122 3366 
L 3122 2828 
Q 2878 2963 2633 3030 
Q 2388 3097 2138 3097 
Q 1578 3097 1268 2742 
Q 959 2388 959 1747 
Q 959 1106 1268 751 
Q 1578 397 2138 397 
Q 2388 397 2633 464 
Q 2878 531 3122 666 
L 3122 134 
Q 2881 22 2623 -34 
Q 2366 -91 2075 -91 
Q 1284 -91 818 406 
Q 353 903 353 1747 
Q 353 2603 823 3093 
Q 1294 3584 2113 3584 
Q 2378 3584 2631 3529 
Q 2884 3475 3122 3366 
z
" transform="scale(0.015625)"/>
     </defs>
     <use xlink:href="#DejaVuSans-44"/>
     <use xlink:href="#DejaVuSans-65" x="77.001953"/>
     <use xlink:href="#DejaVuSans-63" x="138.525391"/>
     <use xlink:href="#DejaVuSans-65" x="193.505859"/>
     <use xlink:href="#DejaVuSans-64" x="255.029297"/>
     <use xlink:href="#DejaVuSans-61" x="318.505859"/>
     <use xlink:href="#DejaVuSans-74" x="379.785156"/>
     <use xlink:href="#DejaVuSans-20" x="418.994141"/>
     <use xlink:href="#DejaVuSans-66" x="450.78125"/>
     <use xlink:href="#DejaVuSans-61" x="485.986328"/>
     <use xlink:href="#DejaVuSans-72" x="547.265625"/>
     <use xlink:href="#DejaVuSans-61" x="588.378906"/>
     <use xlink:href="#DejaVuSans-20" x="649.658203"/>
     <use xlink:href="#DejaVuSans-72" x="681.445312"/>
     <use xlink:href="#DejaVuSans-75" x="722.558594"/>
     <use xlink:href="#DejaVuSans-64" x="785.9375"/>
     <use xlink:href="#DejaVuSans-65" x="849.414062"/>
    </g>
   </g>
   <g id="text_3">
    <!-- Supravietuit cu rude -->
    <g transform="translate(238.40284 294.355172) scale(0.1 -0.1)">
     <use xlink:href="#DejaVuSans-53"/>
     <use xlink:href="#DejaVuSans-75" x="63.476562"/>
     <use xlink:href="#DejaVuSans-70" x="126.855469"/>
     <use xlink:href="#DejaVuSans-72" x="190.332031"/>
     <use xlink:href="#DejaVuSans-61" x="231.445312"/>
     <use xlink:href="#DejaVuSans-76" x="292.724609"/>
     <use xlink:href="#DejaVuSans-69" x="351.904297"/>
     <use xlink:href="#DejaVuSans-65" x="379.6875"/>
     <use xlink:href="#DejaVuSans-74" x="441.210938"/>
     <use xlink:href="#DejaVuSans-75" x="480.419922"/>
     <use xlink:href="#DejaVuSans-69" x="543.798828"/>
     <use xlink:href="#DejaVuSans-74" x="571.582031"/>
     <use xlink:href="#DejaVuSans-20" x="610.791016"/>
     <use xlink:href="#DejaVuSans-63" x="642.578125"/>
     <use xlink:href="#DejaVuSans-75" x="697.558594"/>
     <use xlink:href="#DejaVuSans-20" x="760.9375"/>
     <use xlink:href="#DejaVuSans-72" x="792.724609"/>
     <use xlink:href="#DejaVuSans-75" x="833.837891"/>
     <use xlink:href="#DejaVuSans-64" x="897.216797"/>
     <use xlink:href="#DejaVuSans-65" x="960.693359"/>
    </g>
   </g>
   <g id="text_4">
    <!-- Decedat cu rude -->
    <g transform="translate(347.792501 212.615611) scale(0.1 -0.1)">
     <use xlink:href="#DejaVuSans-44"/>
     <use xlink:href="#DejaVuSans-65" x="77.001953"/>
     <use xlink:href="#DejaVuSans-63" x="138.525391"/>
     <use xlink:href="#DejaVuSans-65" x="193.505859"/>
     <use xlink:href="#DejaVuSans-64" x="255.029297"/>
     <use xlink:href="#DejaVuSans-61" x="318.505859"/>
     <use xlink:href="#DejaVuSans-74" x="379.785156"/>
     <use xlink:href="#DejaVuSans-20" x="418.994141"/>
     <use xlink:href="#DejaVuSans-63" x="450.78125"/>
     <use xlink:href="#DejaVuSans-75" x="505.761719"/>
     <use xlink:href="#DejaVuSans-20" x="569.140625"/>
     <use xlink:href="#DejaVuSans-72" x="600.927734"/>
     <use xlink:href="#DejaVuSans-75" x="642.041016"/>
     <use xlink:href="#DejaVuSans-64" x="705.419922"/>
     <use xlink:href="#DejaVuSans-65" x="768.896484"/>
    </g>
   </g>
  </g>
 </g>
</svg>
